<?xml version="1.0" encoding="utf-8"?>
<!-- Generator: Adobe Illustrator 16.0.0, SVG Export Plug-In . SVG Version: 6.00 Build 0)  -->
<!DOCTYPE svg PUBLIC "-//W3C//DTD SVG 1.1//EN" "http://www.w3.org/Graphics/SVG/1.1/DTD/svg11.dtd">
<svg version="1.1" id="Layer_1" xmlns="http://www.w3.org/2000/svg" xmlns:xlink="http://www.w3.org/1999/xlink" x="0px" y="0px"
	 width="80.2px" height="71.5px" viewBox="0 0 80.2 71.5" enable-background="new 0 0 80.2 71.5" xml:space="preserve">
<path fill="#FFFFFF" d="M34.715,48.524c-0.202-1.488-1.212-7.597-1.615-9.816c-0.504,0-0.907-0.102-1.413-0.202c0,0,0,0,0,0.102
	c1.01,3.709,2.096,7.419,3.104,11.104c0,0,0,0.102,0.102,0.102C34.816,49.433,34.715,48.928,34.715,48.524z M38.324,39.01
	c-0.404,0-0.908,0-1.312,0c0.403,2.901,1.59,11.306,1.59,11.306c0-0.504,0-1.109,0-1.689C38.602,47.917,38.4,42.114,38.324,39.01z
	 M42.21,39.01c-0.102,2.901-0.303,10.12-0.303,11.433l0,0c0.102-0.605,1.11-8,1.414-10.02c0.101-0.506,0.101-1.01,0.201-1.514
	C43.119,38.909,42.615,39.01,42.21,39.01z M47.511,38.43c-0.605,3.812-1.212,7.521-1.893,11.306c0,0,0,0,0.101,0
	c0.101-0.303,0.202-0.707,0.303-1.01c1.011-3.508,1.994-7.016,2.902-10.423c0-0.101,0-0.101,0.101-0.201
	C48.419,38.329,47.914,38.43,47.511,38.43z M47.511,38.43c-0.605,3.812-1.212,7.521-1.893,11.306c0,0,0,0,0.101,0
	c0.101-0.303,0.202-0.707,0.303-1.01c1.011-3.508,1.994-7.016,2.902-10.423c0-0.101,0-0.101,0.101-0.201
	C48.419,38.329,47.914,38.43,47.511,38.43z M41.806,50.442C41.806,50.442,41.908,50.442,41.806,50.442
	c0.102-0.605,1.212-8,1.413-10.02c0.103-0.506,0.103-1.01,0.202-1.514c-0.403,0-0.908,0.101-1.312,0.101
	C42.109,41.911,41.908,49.13,41.806,50.442z M37.012,39.01c0.403,2.901,1.59,11.306,1.59,11.306c0-0.504,0-1.109,0-1.689
	c0-0.707-0.202-6.512-0.303-9.615C37.919,39.01,37.416,39.01,37.012,39.01z M33.1,38.706c-0.504,0-0.907-0.101-1.413-0.201
	c0,0,0,0,0,0.102c1.01,3.709,2.096,7.419,3.104,11.104c0,0,0,0.103,0.102,0.103c-0.102-0.403-0.102-0.909-0.202-1.312
	C34.412,47.036,33.404,40.928,33.1,38.706z M72.041,13.898c-2.6-3.911-6.31-7.218-13.805-9.009
	c-7.723-1.816-14.813,3.205-17.515,7.495c-0.403,0.606-0.707,0.909-1.211,0.101C34.917,5.294,26.311,3.88,21.996,4.89
	c-4.314,1.009-6.813,1.994-9.614,4.314c-3.509,2.902-6.511,7.42-7.117,12.418c-1.211,9.918,4.517,19.23,9.009,24.631
	c3.205,3.91,6.814,7.318,10.701,10.522c4.417,3.609,9.109,6.814,14.006,9.817c0.707,0.402,1.413,0.605,2.195,0.102
	c8.404-5.099,16.127-10.802,23.018-18.222c3.811-4.113,10.221-13.325,10.801-20.417C75.574,20.966,73.656,16.397,72.041,13.898z
	 M32.494,23.893c1.414-0.606,2.902-0.606,4.418-0.403c1.514,0.201,2.901,0.707,4.416,0.907c0.102,0,0.303,0,0.303-0.202
	c0-0.101-0.102-0.201-0.202-0.201c0,0-3.812-1.211-4.694-1.01c1.312-1.109,2.397-2.396,3.104-3.912
	c-0.101,0.809,0.403,1.691,1.01,2.195c0.707,0.505,1.515,0.809,2.296,1.111c0.809,0.303,1.59,0.807,1.993,1.514
	c0.505,0.707,0.505,1.792-0.101,2.296c-0.303,0.304-0.707,0.404-1.211,0.505c-3.609,0.707-7.219-1.792-10.929-1.085
	c-0.303,0.101-1.211,0.404-1.514,0C31.207,25.104,31.51,24.297,32.494,23.893z M27.8,28.208c0.201-1.414,1.514-1.791,2.6-2.094
	c1.312-0.304,3.609-0.203,6.209,0.68c2.7,1.011,6.309,1.011,9.211-0.101c0.403-0.101,0.807-0.403,1.211-0.505
	c0.403-0.102,1.11,0.303,1.414,0.707c0.504,0.505,0.201,1.414-0.304,1.893c-0.505,0.479-1.212,0.605-1.894,0.707
	c-3.608,0.504-7.217,0.504-10.523,0.304c-1.716-0.101-3.331-0.581-4.921-0.177C28.001,30.403,27.598,29.218,27.8,28.208z
	 M52.936,36.107c-0.202,0.505-0.505,0.808-0.907,1.11l0.1,0.102c0,0,0.102,0.201,0,0.201c-1.211,3.508-4.215,12.014-4.518,12.721
	c-0.201,0.402-0.505,0.707-0.908,0.907c-1.01,0.505-1.994,0.808-3.104,1.011c-1.893,0.303-3.912,0.303-5.805,0.201
	c-1.211-0.102-2.297-0.303-3.305-0.808c-0.304-0.103-0.506-0.202-0.809-0.404c-0.505-0.303-0.809-0.604-1.01-1.11
	c-1.262-3.811-2.674-7.723-4.062-11.508c-0.101-0.303-0.201-0.604-0.303-0.808c0-0.101,0-0.101,0-0.202
	c-0.605-0.505-1.109-1.211-1.211-1.893c-0.102-1.01,0.605-1.894,1.414-2.499l-0.102-0.101c-0.504-0.707-0.404-1.793,0.303-2.298
	c0.304-0.202,0.707-0.202,1.111-0.303c1.211-0.101,2.396,0,3.608,0.101c4.215,0,8.403-0.201,12.619-0.707
	c1.11-0.101,2.297-0.303,2.901-1.211c0.201-0.303,0.403-0.707,0.809-0.707c0.201,0,0.402,0.102,0.505,0.202
	c0.907,0.707,1.59,1.691,1.791,2.802c0.103,0.707-0.101,1.412-0.403,1.993C52.734,33.608,53.441,34.922,52.936,36.107z
	 M45.619,49.835L45.619,49.835c0.101-0.303,0.201-0.604,0.303-1.008c1.009-3.508,1.992-7.017,2.902-10.424
	c0-0.102,0-0.102,0.101-0.201c-0.505,0.101-1.011,0.201-1.515,0.303C46.83,42.215,46.223,46.025,45.619,49.835z M41.806,50.442
	C41.806,50.442,41.908,50.442,41.806,50.442c0.102-0.605,1.212-8,1.413-10.02c0.103-0.506,0.103-1.01,0.202-1.514
	c-0.403,0-0.908,0.101-1.312,0.101C42.109,41.911,41.908,49.13,41.806,50.442z M37.012,39.01c0.403,2.901,1.59,11.306,1.59,11.306
	c0-0.504,0-1.109,0-1.689c0-0.707-0.202-6.512-0.303-9.615C37.919,39.01,37.416,39.01,37.012,39.01z M33.1,38.706
	c-0.504,0-0.907-0.101-1.413-0.201c0,0,0,0,0,0.102c1.01,3.709,2.096,7.419,3.104,11.104c0,0,0,0.103,0.102,0.103
	c-0.102-0.403-0.102-0.909-0.202-1.312C34.412,47.036,33.404,40.928,33.1,38.706z M34.715,48.524
	c-0.202-1.488-1.212-7.597-1.615-9.816c-0.504,0-0.907-0.102-1.413-0.202c0,0,0,0,0,0.102c1.01,3.709,2.096,7.419,3.104,11.104
	c0,0,0,0.102,0.102,0.102C34.816,49.433,34.715,48.928,34.715,48.524z M38.324,39.01c-0.404,0-0.908,0-1.312,0
	c0.403,2.901,1.59,11.306,1.59,11.306c0-0.504,0-1.109,0-1.689C38.602,47.917,38.4,42.114,38.324,39.01z M42.21,39.01
	c-0.102,2.901-0.303,10.12-0.303,11.433l0,0c0.102-0.605,1.11-8,1.414-10.02c0.101-0.506,0.101-1.01,0.201-1.514
	C43.119,38.909,42.615,39.01,42.21,39.01z M47.511,38.43c-0.605,3.812-1.212,7.521-1.893,11.306c0,0,0,0,0.101,0
	c0.101-0.303,0.202-0.707,0.303-1.01c1.011-3.508,1.994-7.016,2.902-10.423c0-0.101,0-0.101,0.101-0.201
	C48.419,38.329,47.914,38.43,47.511,38.43z M47.511,38.43c-0.605,3.812-1.212,7.521-1.893,11.306c0,0,0,0,0.101,0
	c0.101-0.303,0.202-0.707,0.303-1.01c1.011-3.508,1.994-7.016,2.902-10.423c0-0.101,0-0.101,0.101-0.201
	C48.419,38.329,47.914,38.43,47.511,38.43z M42.21,39.01c-0.102,2.901-0.303,10.12-0.303,11.433l0,0c0.102-0.605,1.11-8,1.414-10.02
	c0.101-0.506,0.101-1.01,0.201-1.514C43.119,38.909,42.615,39.01,42.21,39.01z M38.324,39.01c-0.404,0-0.908,0-1.312,0
	c0.403,2.901,1.59,11.306,1.59,11.306c0-0.504,0-1.109,0-1.689C38.602,47.917,38.4,42.114,38.324,39.01z M34.715,48.524
	c-0.202-1.488-1.212-7.597-1.615-9.816c-0.504,0-0.907-0.102-1.413-0.202c0,0,0,0,0,0.102c1.01,3.709,2.096,7.419,3.104,11.104
	c0,0,0,0.102,0.102,0.102C34.816,49.433,34.715,48.928,34.715,48.524z"/>
</svg>
