<?xml version="1.0" encoding="utf-8"?>
<!-- Generator: Adobe Illustrator 16.0.0, SVG Export Plug-In . SVG Version: 6.00 Build 0)  -->
<!DOCTYPE svg PUBLIC "-//W3C//DTD SVG 1.1//EN" "http://www.w3.org/Graphics/SVG/1.1/DTD/svg11.dtd">
<svg version="1.1" id="Layer_1" xmlns="http://www.w3.org/2000/svg" xmlns:xlink="http://www.w3.org/1999/xlink" x="0px" y="0px"
	 width="80.2px" height="71.5px" viewBox="139.9 216.25 80.2 71.5" enable-background="new 139.9 216.25 80.2 71.5"
	 xml:space="preserve">
<path fill="#FFFFFF" d="M188.88,241.069c-0.2-0.4-0.7-0.6-1.301-0.6s-1.001,0.199-1.2,0.6c-0.2,0.4-0.301,0.9-0.301,1.501
	s0.2,1.3,0.4,2.101s0.5,1.601,0.9,2.502c0.4-0.801,0.801-1.602,1.101-2.502c0.3-0.801,0.5-1.5,0.5-2.201
	C189.18,241.97,189.079,241.37,188.88,241.069z M188.88,241.069c-0.2-0.4-0.7-0.6-1.301-0.6s-1.001,0.199-1.2,0.6
	c-0.2,0.4-0.301,0.9-0.301,1.501s0.2,1.3,0.4,2.101s0.5,1.601,0.9,2.502c0.4-0.801,0.801-1.602,1.101-2.502
	c0.3-0.801,0.5-1.5,0.5-2.201C189.18,241.97,189.079,241.37,188.88,241.069z M211.889,230.165
	c-2.601-3.901-6.303-7.203-13.806-9.004c-7.703-1.801-14.806,3.201-17.507,7.504c-0.4,0.6-0.7,0.9-1.201,0.1
	c-4.602-7.203-13.205-8.604-17.507-7.604s-6.803,2.001-9.604,4.303c-3.501,2.9-6.503,7.402-7.103,12.404
	c-1.201,9.904,4.502,19.208,9.003,24.61c3.202,3.901,6.804,7.303,10.704,10.504c4.402,3.602,9.104,6.803,14.006,9.804
	c0.701,0.501,1.4,0.601,2.201,0.101c8.403-5.103,16.106-10.805,23.01-18.207c3.801-4.103,10.204-13.306,10.805-20.409
	C215.49,237.067,213.489,232.666,211.889,230.165z M199.884,240.97c-0.2,0.6-0.5,1.4-0.8,2.201c-0.301,0.8-0.601,1.6-0.9,2.301
	c-0.3,0.9-0.601,1.701-1.001,2.602c-0.9,2.2-1.7,4.201-2.601,5.901c-0.4,0.801-0.801,1.501-1.201,2.201
	c-0.399,0.7-0.9,1.301-1.4,1.9c-0.5,0.601-0.9,1.001-1.4,1.301c-0.5,0.301-0.9,0.5-1.4,0.5c-0.801,0-1.4-0.199-2.001-0.5
	c-0.601-0.3-1.101-0.8-1.601-1.4s-0.9-1.2-1.2-2.001c-0.3-0.7-0.7-1.5-0.9-2.301v-0.101c-0.4,0.4-0.9,0.801-1.501,1.301
	s-1.4,1.101-2.201,1.701c-0.8,0.6-1.801,1.101-2.701,1.601c-1,0.5-2,0.9-3.001,1.2c-1,0.301-2.101,0.5-3.101,0.5
	c-1.602,0-2.902-0.3-4.102-1c-1.102-0.601-2.102-1.4-2.802-2.401c-0.7-1-1.3-2-1.601-3.201c-0.4-1.2-0.5-2.201-0.5-3.201
	c0-1.101,0.199-2.201,0.6-3.401s1.001-2.301,1.801-3.302c0.801-1,1.801-1.9,3.002-2.601c1.2-0.7,2.5-1.001,4.002-1.001
	c0.9,0,1.6,0.101,2.4,0.4c0.7,0.301,1.301,0.601,1.9,1.101c0.5,0.4,1,0.9,1.301,1.501c0.301,0.6,0.5,1.1,0.5,1.701
	c0.1,0.899,0,1.7-0.3,2.5c-0.3,0.801-0.8,1.301-1.501,1.602c-0.3,0.199-0.6,0.3-1,0.3c-0.601,0-1.101-0.2-1.601-0.601
	c-0.4-0.4-0.601-0.9-0.601-1.5c0-0.601,0.2-1.102,0.601-1.602c0.399-0.4,1-0.6,1.601-0.6c0.5,0,1,0.199,1.4,0.6
	c0-0.3-0.1-0.6-0.2-1.1s-0.3-0.9-0.601-1.301c-0.3-0.4-0.699-0.801-1.3-1.201c-0.601-0.3-1.301-0.5-2.201-0.5s-1.601,0.4-2.2,1.201
	c-0.602,0.8-0.9,1.801-1.102,3.001c-0.199,1.2-0.199,2.501-0.1,3.901c0.2,1.4,0.5,2.701,1,3.901c0.5,1.201,1.201,2.201,2.102,3.002
	c0.9,0.8,2,1.2,3.301,1.2c0.801,0,1.602-0.2,2.502-0.5c0.8-0.301,1.7-0.801,2.701-1.401c1-0.6,2.099-1.5,3.2-2.801
	c-0.399-1.501-0.8-3.101-1-4.901c-0.2-1.501-0.101-2.802,0.2-4.002c0.101-0.5,0.3-1,0.601-1.501c0.199-0.5,0.6-0.9,1-1.3
	c0.4-0.4,0.9-0.701,1.501-0.9c0.6-0.201,1.3-0.301,2.2-0.301c1.001,0,1.701,0.301,2.102,0.801c0.399,0.5,0.5,1.2,0.399,2.101
	c-0.1,0.8-0.3,1.801-0.7,2.801c-0.4,1.001-0.9,2.101-1.4,3.102c0.4,0.8,0.801,1.601,1.201,2.301c0.399,0.7,0.8,1.401,1.2,1.901
	c0.4,0.6,0.8,1,1.101,1.4c0.3,0.4,0.6,0.5,0.8,0.5s0.4-0.3,0.801-0.801c0.3-0.5,0.7-1.2,1-2c0.4-0.801,0.801-1.701,1.2-2.802
	c0.4-1,0.801-2.001,1.201-3.101c0.399-1.001,0.8-2.002,1.2-2.902c0.4-0.899,0.7-1.7,0.9-2.2c0.1-0.2,0.2-0.3,0.4-0.4
	c0.199-0.1,0.3-0.1,0.4-0.1c0.1,0,0.199,0.1,0.3,0.2C199.984,240.569,199.984,240.77,199.884,240.97z M189.079,242.57
	c0.101-0.601,0-1.101-0.199-1.501c-0.2-0.4-0.7-0.6-1.301-0.6s-1.001,0.199-1.2,0.6c-0.2,0.4-0.301,0.9-0.301,1.501
	s0.2,1.3,0.4,2.101s0.5,1.601,0.9,2.502c0.4-0.801,0.801-1.602,1.101-2.502C188.88,243.87,188.979,243.171,189.079,242.57z"/>
</svg>
