<?xml version="1.0" encoding="utf-8"?>
<!-- Generator: Adobe Illustrator 16.0.0, SVG Export Plug-In . SVG Version: 6.00 Build 0)  -->
<!DOCTYPE svg PUBLIC "-//W3C//DTD SVG 1.1//EN" "http://www.w3.org/Graphics/SVG/1.1/DTD/svg11.dtd">
<svg version="1.1" id="Layer_1" xmlns="http://www.w3.org/2000/svg" xmlns:xlink="http://www.w3.org/1999/xlink" x="0px" y="0px"
	 width="80.228px" height="71.518px" viewBox="0 0 80.228 71.518" enable-background="new 0 0 80.228 71.518" xml:space="preserve">
<path fill-rule="evenodd" clip-rule="evenodd" fill="#FFFFFF" d="M72.035,13.919c-2.566-3.921-6.277-7.189-13.767-8.975
	c-7.649-1.822-14.8,3.169-17.478,7.487c-0.381,0.614-0.719,0.906-1.234,0.098C34.93,5.287,26.333,3.903,22.017,4.944
	c-4.316,1.042-6.812,1.986-9.629,4.321c-3.525,2.922-6.479,7.435-7.104,12.41c-1.241,9.896,4.521,19.158,9.035,24.615
	c3.194,3.859,6.811,7.295,10.688,10.462c4.414,3.607,9.115,6.808,13.966,9.795c0.722,0.445,1.366,0.594,2.149,0.116
	c8.392-5.129,16.097-10.792,22.957-18.18C67.978,44.287,74.385,35.144,75,27.95C75.613,20.758,73.631,16.37,72.035,13.919z
	 M26.15,25.108c0.165-0.379,0.622-0.236,0.953-0.237c4.332-0.01,8.664-0.006,12.996-0.007c4.293,0,8.586-0.004,12.879,0.006
	c0.373,0,0.889-0.164,1.08,0.221c0.224,0.45-0.312,0.653-0.58,0.888c-4.135,3.63-8.292,7.234-12.416,10.877
	c-0.688,0.609-1.178,0.643-1.884,0.018c-4.15-3.671-8.337-7.301-12.503-10.955C26.431,25.704,25.973,25.517,26.15,25.108z
	 M24.612,44.725c-0.196,0.176-0.407,0.438-0.707,0.285c-0.341-0.173-0.245-0.545-0.246-0.839c-0.01-2.766-0.006-5.531-0.007-8.297
	c0-2.727-0.006-5.454,0.006-8.18c0.002-0.329-0.117-0.767,0.297-0.925c0.332-0.127,0.568,0.189,0.797,0.387
	c3.024,2.635,6.039,5.282,9.07,7.911c0.566,0.491,0.63,0.888,0.034,1.416C30.765,39.219,27.694,41.979,24.612,44.725z
	 M53.804,46.391c-0.188,0.418-0.77,0.264-1.184,0.266c-4.169,0.01-8.338,0.006-12.508,0.006c-4.014,0.002-8.027,0.002-12.041,0
	c-0.35,0-0.701-0.002-1.051-0.023c-0.229-0.015-0.514-0.001-0.625-0.235c-0.154-0.325,0.157-0.485,0.347-0.656
	c1.185-1.071,2.378-2.134,3.57-3.196c1.716-1.529,3.448-3.042,5.144-4.594c0.604-0.553,1.096-0.606,1.692-0.002
	c0.519,0.525,1.096,0.998,1.678,1.453c0.843,0.659,1.719,0.65,2.569,0.004c0.372-0.283,0.721-0.596,1.073-0.902
	c1.481-1.29,1.479-1.289,2.906-0.01c2.583,2.314,5.174,4.619,7.747,6.943C53.416,45.707,54.021,45.908,53.804,46.391z
	 M56.273,45.022c-0.338,0.122-0.56-0.206-0.785-0.407c-2.995-2.668-5.975-5.355-8.989-8.002c-0.72-0.631-0.68-1.059,0.022-1.662
	c2.982-2.565,5.932-5.169,8.9-7.75c0.25-0.217,0.502-0.599,0.889-0.412c0.376,0.183,0.255,0.619,0.256,0.952
	c0.011,2.766,0.006,5.531,0.006,8.297c0,2.688,0.006,5.375-0.008,8.062C56.563,44.426,56.701,44.867,56.273,45.022z"/>
</svg>
