<?xml version="1.0" encoding="utf-8"?>
<!-- Generator: Adobe Illustrator 16.0.0, SVG Export Plug-In . SVG Version: 6.00 Build 0)  -->
<!DOCTYPE svg PUBLIC "-//W3C//DTD SVG 1.1//EN" "http://www.w3.org/Graphics/SVG/1.1/DTD/svg11.dtd">
<svg version="1.1" id="Layer_1" xmlns="http://www.w3.org/2000/svg" xmlns:xlink="http://www.w3.org/1999/xlink" x="0px" y="0px"
	 width="80.228px" height="71.518px" viewBox="0 0 80.228 71.518" enable-background="new 0 0 80.228 71.518" xml:space="preserve">
<path fill-rule="evenodd" clip-rule="evenodd" fill="#FFFFFF" d="M72.035,13.919c-2.566-3.921-6.277-7.189-13.766-8.975
	c-7.65-1.822-14.801,3.169-17.479,7.487c-0.381,0.614-0.719,0.906-1.234,0.098c-4.627-7.243-13.223-8.627-17.539-7.585
	c-4.316,1.042-6.812,1.986-9.629,4.321c-3.525,2.921-6.479,7.435-7.103,12.41C4.044,31.571,9.806,40.834,14.32,46.29
	c3.195,3.86,6.811,7.296,10.688,10.463c4.414,3.606,9.115,6.808,13.965,9.795c0.723,0.445,1.367,0.594,2.15,0.116
	c8.393-5.129,16.098-10.792,22.957-18.18C67.978,44.287,74.386,35.144,75,27.95C75.613,20.758,73.632,16.37,72.035,13.919z
	 M30.939,48.361c0,0.037-0.002,0.073-0.002,0.109c0,0.117-0.043,0.205-0.162,0.239c-2.148,0-4.297,0-6.443,0
	c-0.111-0.024-0.154-0.104-0.16-0.208c-0.004-0.06-0.004-0.119-0.004-0.178c0-7.045,0-14.09,0-21.135
	c0-0.079-0.004-0.158,0.012-0.236c0.02-0.089,0.066-0.141,0.16-0.148c0.068-0.005,0.137-0.014,0.205-0.014
	c2.014-0.001,4.025-0.001,6.037,0c0.32,0,0.357,0.036,0.357,0.357c0,3.409,0,6.818,0,10.227
	C30.939,41.037,30.939,44.699,30.939,48.361z M30.878,21.978c-0.643,0.963-1.547,1.543-2.691,1.715
	c-1.326,0.2-2.484-0.178-3.439-1.125c-0.633-0.629-0.984-1.406-1.094-2.292c-0.004-0.022-0.01-0.044-0.014-0.067
	c0-0.277,0-0.553,0-0.83c0.01-0.062,0.02-0.123,0.031-0.184c0.273-1.541,1.15-2.576,2.611-3.12c0.283-0.104,0.578-0.15,0.875-0.194
	c0.283,0,0.566,0,0.85,0c0.303,0.045,0.605,0.096,0.893,0.206c1.443,0.551,2.32,1.58,2.57,3.11
	C31.632,20.193,31.443,21.134,30.878,21.978z M56.507,48.712c-2.188-0.002-4.375-0.002-6.561-0.002
	c-0.117-0.05-0.186-0.134-0.189-0.265c0-0.059-0.01-0.117-0.01-0.177c0.008-1.538,0-3.075,0.01-4.612
	c0.012-2.006-0.006-4.011-0.01-6.017c0-0.161,0-0.322,0-0.484c0-0.494-0.016-0.987-0.082-1.477c-0.084-0.606-0.221-1.198-0.48-1.754
	c-0.385-0.823-1.01-1.374-1.898-1.594c-0.855-0.212-1.711-0.178-2.555,0.062c-0.797,0.227-1.414,0.702-1.855,1.403
	c-0.252,0.399-0.416,0.836-0.535,1.291c-0.215,0.817-0.297,1.65-0.297,2.492c-0.002,3.576,0,7.152,0,10.729
	c0,0.052-0.002,0.104-0.004,0.157c-0.006,0.131-0.062,0.22-0.197,0.245c-2.123,0-4.244,0-6.365,0
	c-0.152-0.06-0.205-0.179-0.205-0.335c0.002-0.778,0.002-1.556,0.002-2.333c0-6.291,0-12.583,0-18.874
	c0-0.072-0.004-0.145,0.014-0.216c0.02-0.084,0.07-0.133,0.154-0.145c0.064-0.009,0.131-0.016,0.195-0.016
	c1.918-0.001,3.834-0.001,5.752,0c0.318,0,0.359,0.041,0.359,0.357c0,0.754,0,1.508,0,2.263c0,0.086,0.006,0.171,0.018,0.256
	c0.008,0.048,0.033,0.078,0.078,0.093c0.049,0.017,0.084-0.008,0.109-0.044c0.027-0.037,0.051-0.078,0.074-0.117
	c0.473-0.78,1.096-1.422,1.83-1.958c0.982-0.718,2.088-1.132,3.291-1.293c0.596-0.079,1.193-0.112,1.793-0.093
	c1.213,0.04,2.387,0.259,3.504,0.745c1.191,0.519,2.098,1.355,2.748,2.476c0.461,0.793,0.75,1.653,0.963,2.54
	c0.146,0.615,0.242,1.239,0.299,1.869c0.053,0.577,0.062,1.156,0.08,1.735c0.021,0.74,0.039,1.48,0.037,2.221
	c0,0.026,0.01,0.052,0.014,0.077c0,2.319,0,4.638,0,6.958c0,0.883,0,1.766,0,2.648c0,0.368-0.002,0.737,0.002,1.106
	C56.589,48.699,56.576,48.712,56.507,48.712z"/>
</svg>
