<?xml version="1.0" encoding="utf-8"?>
<!-- Generator: Adobe Illustrator 16.0.0, SVG Export Plug-In . SVG Version: 6.00 Build 0)  -->
<!DOCTYPE svg PUBLIC "-//W3C//DTD SVG 1.1//EN" "http://www.w3.org/Graphics/SVG/1.1/DTD/svg11.dtd">
<svg version="1.1" id="Layer_1" xmlns="http://www.w3.org/2000/svg" xmlns:xlink="http://www.w3.org/1999/xlink" x="0px" y="0px"
	 width="24.25px" height="26.438px" viewBox="0 0 24.25 26.438" enable-background="new 0 0 24.25 26.438" xml:space="preserve">
<g>
	<g>
		<path fill="#EC227F" d="M22.996,6.766c-0.639-2.675-1.806-4-3.206-4.917c-0.876-0.57-2.442-1.278-5.011-1.058
			c-2.569,0.22-5.836,2.507-7.334,3.9c-2.639,2.45-4.66,5.202-6.492,8.199c-0.17,0.28-0.118,0.509,0.041,0.768
			c1.066,1.731,2.211,3.411,3.498,4.987c1.131,1.385,2.358,2.676,3.737,3.818c1.948,1.611,5.257,3.668,8.79,3.227
			c1.777-0.223,3.389-1.279,4.433-2.537c0.834-1.006,1.171-1.898,1.544-3.439c0.371-1.541-0.123-4.611-2.71-6.264
			c-0.288-0.185-0.185-0.305,0.036-0.441C21.863,12.052,23.646,9.498,22.996,6.766z"/>
	</g>
</g>
</svg>
