<?xml version="1.0" encoding="utf-8"?>
<!-- Generator: Adobe Illustrator 16.0.0, SVG Export Plug-In . SVG Version: 6.00 Build 0)  -->
<!DOCTYPE svg PUBLIC "-//W3C//DTD SVG 1.1//EN" "http://www.w3.org/Graphics/SVG/1.1/DTD/svg11.dtd">
<svg version="1.1" id="Layer_1" xmlns="http://www.w3.org/2000/svg" xmlns:xlink="http://www.w3.org/1999/xlink" x="0px" y="0px"
	 width="24.25px" height="26.438px" viewBox="0 0 24.25 26.438" enable-background="new 0 0 24.25 26.438" xml:space="preserve">
<g>
	<g>
		<path fill="#EC227F" d="M0.985,6.766c0.638-2.675,1.805-4,3.206-4.917c0.875-0.57,2.442-1.278,5.011-1.058
			c2.569,0.22,5.836,2.507,7.334,3.9c2.639,2.45,4.66,5.202,6.492,8.199c0.17,0.28,0.118,0.509-0.041,0.768
			c-1.066,1.731-2.211,3.411-3.498,4.987c-1.131,1.385-2.358,2.676-3.737,3.818c-1.948,1.611-5.256,3.668-8.791,3.227
			c-1.777-0.223-3.389-1.279-4.432-2.537c-0.834-1.006-1.171-1.898-1.543-3.439c-0.372-1.541,0.123-4.611,2.709-6.264
			c0.288-0.185,0.184-0.305-0.036-0.441C2.117,12.052,0.334,9.498,0.985,6.766z"/>
	</g>
</g>
</svg>
