<?xml version="1.0" encoding="utf-8"?>
<!-- Generator: Adobe Illustrator 16.0.0, SVG Export Plug-In . SVG Version: 6.00 Build 0)  -->
<!DOCTYPE svg PUBLIC "-//W3C//DTD SVG 1.1//EN" "http://www.w3.org/Graphics/SVG/1.1/DTD/svg11.dtd">
<svg version="1.1" id="Layer_1" xmlns="http://www.w3.org/2000/svg" xmlns:xlink="http://www.w3.org/1999/xlink" x="0px" y="0px"
	 width="14.568px" height="12.986px" viewBox="0 0 14.568 12.986" enable-background="new 0 0 14.568 12.986" xml:space="preserve">
<g>
	<path fill="#EC1D7E" d="M10.775,0.567c1.439,0.343,2.153,0.972,2.647,1.726c0.307,0.471,0.688,1.315,0.569,2.698
		s-1.35,3.142-2.1,3.949c-1.319,1.421-2.801,2.51-4.415,3.496c-0.15,0.092-0.274,0.063-0.413-0.022
		c-0.933-0.574-1.837-1.19-2.686-1.884c-0.746-0.609-1.441-1.27-2.056-2.012C1.456,7.47,0.347,5.688,0.586,3.785
		c0.12-0.957,0.688-1.825,1.366-2.387c0.542-0.449,1.021-0.631,1.852-0.831s2.483,0.066,3.373,1.458
		c0.099,0.156,0.164,0.1,0.237-0.019C7.929,1.177,9.304,0.217,10.775,0.567z"/>
</g>
</svg>
